<svg width="21" height="22" viewBox="0 0 21 22" fill="none" xmlns="http://www.w3.org/2000/svg">
<path d="M0 3.44017V16.7246C0 18.6196 1.5361 20.1647 3.43118 20.1647H9.75453C8.99997 19.024 8.59582 17.6857 8.59582 16.2845C8.59582 12.3682 11.7845 9.17956 15.7005 9.17956C16.2681 9.17956 16.4213 9.2425 16.509 9.2425V3.44017C16.509 1.54488 14.9641 0 13.0778 0H3.43118C1.5361 -8.98199e-08 0 1.54488 0 3.44017ZM6.05385 15.8174H4.2307C3.73665 15.8174 3.3325 15.4132 3.3325 14.9192C3.3325 14.4161 3.73665 14.021 4.2307 14.021H6.05385C6.5479 14.021 6.95205 14.4161 6.95205 14.9192C6.95205 15.4132 6.5479 15.8174 6.05385 15.8174ZM7.00599 10.976H4.2307C3.73665 10.976 3.3325 10.5808 3.3325 10.0778C3.3325 9.58393 3.73665 9.17956 4.2307 9.17956H7.00599C7.50005 9.17956 7.90419 9.58393 7.90419 10.0778C7.90419 10.5808 7.50005 10.976 7.00599 10.976ZM4.2307 4.34736H12.2695C12.7636 4.34736 13.1677 4.75151 13.1677 5.24556C13.1677 5.7486 12.7636 6.14376 12.2695 6.14376H4.2307C3.73665 6.14376 3.3325 5.7486 3.3325 5.24556C3.3325 4.75151 3.73665 4.34736 4.2307 4.34736Z" fill="#3A5372"/>
<path d="M15.7005 10.9761C12.7636 10.9761 10.3922 13.3385 10.3922 16.2846C10.3922 19.3089 12.8741 21.5749 15.7005 21.5749C18.6196 21.5749 21 19.2037 21 16.2846C21 13.3168 18.583 10.9761 15.7005 10.9761ZM17.1017 17.7845C16.7419 18.1443 16.1863 18.1444 15.8264 17.7845L14.9731 16.9312C14.8023 16.7606 14.7126 16.5361 14.7126 16.2936V14.4792C14.7126 13.9761 15.1078 13.581 15.6108 13.581C16.1049 13.581 16.509 13.9761 16.509 14.4792V15.9252L17.1017 16.5181C17.4522 16.8683 17.4522 17.4343 17.1017 17.7845Z" fill="#3A5372"/>
</svg>
