<svg width="21" height="21" viewBox="0 0 21 21" fill="none" xmlns="http://www.w3.org/2000/svg">
<g clip-path="url(#clip0_47_604)">
<path d="M15.4014 11.2383C12.71 11.2383 10.5205 13.4278 10.5205 16.1191C10.5205 18.8105 12.71 21 15.4014 21C18.1153 21 20.3232 18.8105 20.3232 16.1191C20.3232 13.4278 18.1153 11.2383 15.4014 11.2383ZM16.8994 15.5286L15.2588 17.4974C15.1411 17.6385 14.9675 17.7188 14.7862 17.7188C14.7626 17.7188 14.7389 17.7174 14.7152 17.7146C14.5089 17.6907 14.3287 17.5644 14.2358 17.3786L13.5796 16.0661C13.4276 15.7623 13.5508 15.3927 13.8547 15.2408C14.1586 15.0887 14.5282 15.212 14.6801 15.5159L14.9157 15.987L15.9541 14.7409C16.1716 14.4799 16.5596 14.4447 16.8206 14.6621C17.0817 14.8796 17.1169 15.2676 16.8994 15.5286Z" fill="#3A5372"/>
<path d="M15.1362 3.50491L12.6399 0.923426C12.6387 0.922195 12.6375 0.920924 12.6363 0.919693C12.0615 0.335221 11.2618 0 10.4422 0H2.52246C1.50474 0 0.676758 0.827982 0.676758 1.8457V17.8008C0.676758 18.8185 1.50474 19.6465 2.52246 19.6465H10.4135C9.70622 18.6493 9.29004 17.432 9.29004 16.1191C9.29004 12.7493 12.0316 10.0078 15.4014 10.0078C15.609 10.0078 15.8142 10.0182 16.0166 10.0383V5.65934C16.0166 4.8485 15.7039 4.08352 15.1362 3.50491ZM7.19824 13.7402H3.91699C3.57722 13.7402 3.30176 13.4648 3.30176 13.125C3.30176 12.7852 3.57722 12.5098 3.91699 12.5098H7.19824C7.53802 12.5098 7.81348 12.7852 7.81348 13.125C7.81348 13.4648 7.53802 13.7402 7.19824 13.7402ZM7.19824 10.459H3.91699C3.57722 10.459 3.30176 10.1835 3.30176 9.84375C3.30176 9.50398 3.57722 9.22852 3.91699 9.22852H7.19824C7.53802 9.22852 7.81348 9.50398 7.81348 9.84375C7.81348 10.1835 7.53802 10.459 7.19824 10.459ZM7.19824 7.17773H3.91699C3.57722 7.17773 3.30176 6.90227 3.30176 6.5625C3.30176 6.22273 3.57722 5.94727 3.91699 5.94727H7.19824C7.53802 5.94727 7.81348 6.22273 7.81348 6.5625C7.81348 6.90227 7.53802 7.17773 7.19824 7.17773ZM11.1357 10.459H10.4795C10.1397 10.459 9.86426 10.1835 9.86426 9.84375C9.86426 9.50398 10.1397 9.22852 10.4795 9.22852H11.1357C11.4755 9.22852 11.751 9.50398 11.751 9.84375C11.751 10.1835 11.4755 10.459 11.1357 10.459ZM11.1357 7.17773H10.4795C10.1397 7.17773 9.86426 6.90227 9.86426 6.5625C9.86426 6.22273 10.1397 5.94727 10.4795 5.94727H11.1357C11.4755 5.94727 11.751 6.22273 11.751 6.5625C11.751 6.90227 11.4755 7.17773 11.1357 7.17773Z" fill="#3A5372"/>
</g>
<defs>
<clipPath id="clip0_47_604">
<rect width="21" height="21" fill="white"/>
</clipPath>
</defs>
</svg>
