<svg width="21" height="21" viewBox="0 0 21 21" fill="none" xmlns="http://www.w3.org/2000/svg">
<g clip-path="url(#clip0_47_595)">
<path d="M12.25 6.125V0.4025C13.0489 0.70525 13.7839 1.17162 14.4069 1.79375L17.4554 4.844C18.0784 5.46613 18.5448 6.20113 18.8475 7H13.125C12.642 7 12.25 6.60712 12.25 6.125ZM19.25 9.17437V16.625C19.25 19.0374 17.2874 21 14.875 21H6.125C3.71263 21 1.75 19.0374 1.75 16.625V4.375C1.75 1.96263 3.71263 0 6.125 0H10.0756C10.2183 0 10.3591 0.011375 10.5 0.021V6.125C10.5 7.57225 11.6777 8.75 13.125 8.75H19.229C19.2386 8.89087 19.25 9.03175 19.25 9.17437ZM7.875 15.75C7.86975 14.6055 6.13025 14.6064 6.125 15.75V17.5C6.13025 18.6445 7.86975 18.6436 7.875 17.5V15.75ZM11.375 11.375C11.3698 10.2305 9.63025 10.2314 9.625 11.375V17.5C9.63025 18.6445 11.3698 18.6436 11.375 17.5V11.375ZM14.875 14C14.8698 12.8555 13.1294 12.8564 13.125 14V17.5C13.1302 18.6445 14.8706 18.6436 14.875 17.5V14Z" fill="#3A5372"/>
</g>
<defs>
<clipPath id="clip0_47_595">
<rect width="21" height="21" fill="white"/>
</clipPath>
</defs>
</svg>
