<svg width="24" height="24" viewBox="0 0 24 24" fill="none" xmlns="http://www.w3.org/2000/svg">
<path d="M17.0562 23.9999H5.9202C4.70721 23.9558 3.57728 23.3723 2.83902 22.4089C2.10075 21.4454 1.83128 20.2026 2.1042 19.0199L2.3922 17.6519C2.72344 15.8 4.31535 14.4391 6.1962 14.3999H16.7802C18.6611 14.4391 20.253 15.8 20.5842 17.6519L20.8722 19.0199C21.1451 20.2026 20.8757 21.4454 20.1374 22.4089C19.3991 23.3723 18.2692 23.9558 17.0562 23.9999Z" fill="#3A5372"/>
<path d="M12.0882 12H10.8882C8.23725 12 6.08821 9.85098 6.08821 7.20002V4.03202C6.08501 2.96169 6.50879 1.93427 7.26563 1.17743C8.02247 0.420589 9.04988 -0.00318182 10.1202 1.799e-05H12.8562C13.9265 -0.00318182 14.954 0.420589 15.7108 1.17743C16.4676 1.93427 16.8914 2.96169 16.8882 4.03202V7.20002C16.8882 8.47306 16.3825 9.69396 15.4823 10.5941C14.5822 11.4943 13.3613 12 12.0882 12Z" fill="#3A5372"/>
</svg>
