<svg width="21" height="21" viewBox="0 0 21 21" fill="none" xmlns="http://www.w3.org/2000/svg">
<path fill-rule="evenodd" clip-rule="evenodd" d="M11.4257 1.75H17.7654C19.5518 1.75 21 3.19817 21 4.98457V17.1574C21 18.9438 19.5518 20.3919 17.7654 20.3919H11.4257C9.63927 20.3919 8.1911 18.9438 8.1911 17.1574V13.4053H10.6925C11.8834 13.4053 12.8489 12.4398 12.8489 11.2489V10.8931C12.8489 9.70213 11.8834 8.73668 10.6925 8.73668H8.1911V4.98457C8.1911 3.19817 9.63927 1.75 11.4257 1.75ZM13.9594 6.75282H17.5714C18.018 6.75282 18.38 6.39078 18.38 5.94418C18.38 5.49758 18.018 5.13554 17.5714 5.13554H13.9594C13.5128 5.13554 13.1508 5.49758 13.1508 5.94418C13.1508 6.39078 13.5128 6.75282 13.9594 6.75282Z" fill="#3A5372"/>
<path d="M10.8327 9.78271H8.21265V12.3704H10.8327C11.3745 12.3704 11.8138 11.9311 11.8138 11.3892V10.7639C11.8138 10.222 11.3745 9.78271 10.8327 9.78271V9.78271Z" fill="#3A5372"/>
<path fill-rule="evenodd" clip-rule="evenodd" d="M0.00761449 5.448C-0.116288 3.57662 1.28641 1.95295 3.15593 1.80371C5.01537 1.96399 6.40244 3.58624 6.27191 5.448V15.4967C6.282 16.0117 6.13944 16.5182 5.8622 16.9523L3.84598 20.0683C3.70316 20.3243 3.43294 20.483 3.13976 20.483C2.84658 20.483 2.57636 20.3243 2.43355 20.0683L0.417327 16.9523C0.144675 16.5161 0.00250943 16.0111 0.00761449 15.4967V5.448ZM3.14514 9.45887C3.59174 9.45887 3.95378 9.09683 3.95378 8.65023V4.91969C3.95671 4.70434 3.87246 4.49695 3.72017 4.34466C3.56788 4.19237 3.36049 4.10811 3.14514 4.11104C2.69854 4.11104 2.3365 4.47308 2.3365 4.91969V8.65023C2.3365 9.09683 2.69854 9.45887 3.14514 9.45887Z" fill="#3A5372"/>
</svg>
