<svg width="228" height="58" viewBox="0 0 228 58" fill="none" xmlns="http://www.w3.org/2000/svg">
<ellipse cx="30.7177" cy="29" rx="30.7177" ry="29" fill="#3A5372" fill-opacity="0.5"/>
<path d="M77.6829 19.1626C77.7454 19.1626 77.8704 19.1626 78.0579 19.1626C78.2454 19.1626 78.4642 19.1626 78.7142 19.1626C78.9746 19.1626 79.2454 19.1626 79.5267 19.1626C79.8183 19.1626 80.0892 19.1626 80.3392 19.1626C80.5996 19.1626 80.8235 19.1626 81.011 19.1626C81.209 19.1626 81.3392 19.1626 81.4017 19.1626L90.3235 34.2095H90.3548L90.3392 23.2563C90.3392 22.9647 90.3183 22.7355 90.2767 22.5688C90.235 22.3918 90.1569 22.2563 90.0423 22.1626C89.9277 22.0688 89.7663 22.0116 89.5579 21.9907C89.36 21.9595 89.0996 21.9438 88.7767 21.9438H88.0579V19.1626C88.8392 19.1626 89.5371 19.1678 90.1517 19.1782C90.7767 19.1886 91.3444 19.1938 91.8548 19.1938C91.9277 19.1938 92.0423 19.1938 92.1985 19.1938C92.3652 19.1938 92.5527 19.1938 92.761 19.1938C92.9694 19.1938 93.1933 19.1938 93.4329 19.1938C93.6725 19.1834 93.9121 19.1782 94.1517 19.1782C94.7142 19.1782 95.3288 19.173 95.9954 19.1626V21.9438H95.1985C94.8444 21.9438 94.5735 21.9855 94.386 22.0688C94.1985 22.1418 94.0579 22.2511 93.9642 22.397C93.8808 22.5324 93.8288 22.7043 93.8079 22.9126C93.7975 23.1105 93.7923 23.3293 93.7923 23.5688C93.7923 23.5897 93.7923 23.8397 93.7923 24.3188C93.7923 24.798 93.7923 25.423 93.7923 26.1938C93.7923 26.9543 93.7923 27.8188 93.7923 28.7876C93.7923 29.7563 93.7923 30.7459 93.7923 31.7563V39.8188H88.6517L79.261 24.1626H79.2298L79.2454 35.4438C79.2454 35.7668 79.261 36.022 79.2923 36.2095C79.334 36.3866 79.4121 36.522 79.5267 36.6157C79.6517 36.7095 79.8183 36.7668 80.0267 36.7876C80.235 36.8084 80.511 36.8188 80.8548 36.8188H81.6204V39.6001C81.0267 39.6001 80.4225 39.5949 79.8079 39.5845C79.2038 39.5741 78.5006 39.5688 77.6985 39.5688C77.2506 39.5688 76.8444 39.5741 76.4798 39.5845C76.1152 39.5845 75.7663 39.5845 75.4329 39.5845C75.11 39.5845 74.7923 39.5897 74.4798 39.6001C74.1673 39.6001 73.8444 39.6001 73.511 39.6001V36.8188H74.3235C74.709 36.8188 75.0006 36.7824 75.1985 36.7095C75.4069 36.6366 75.5579 36.5272 75.6517 36.3813C75.7454 36.2355 75.7975 36.0532 75.8079 35.8345C75.8183 35.6053 75.8235 35.3397 75.8235 35.0376V23.522C75.8235 23.2095 75.8131 22.9543 75.7923 22.7563C75.7715 22.548 75.709 22.3866 75.6048 22.272C75.511 22.147 75.3652 22.0636 75.1673 22.022C74.9694 21.9699 74.6985 21.9438 74.3548 21.9438H73.5423V19.1626H77.6829ZM101.745 18.7407C102.131 18.7407 102.485 18.7876 102.808 18.8813C103.141 18.9647 103.428 19.0897 103.667 19.2563C103.917 19.4126 104.11 19.6105 104.245 19.8501C104.381 20.0897 104.449 20.3553 104.449 20.647C104.449 21.2303 104.204 21.6991 103.714 22.0532C103.235 22.4074 102.579 22.5845 101.745 22.5845C100.933 22.5845 100.282 22.423 99.7923 22.1001C99.3027 21.7772 99.0579 21.2928 99.0579 20.647C99.0579 20.0741 99.3027 19.6157 99.7923 19.272C100.282 18.9178 100.933 18.7407 101.745 18.7407ZM104.417 35.6313C104.417 35.9543 104.438 36.2095 104.48 36.397C104.532 36.5845 104.62 36.7303 104.745 36.8345C104.881 36.9282 105.068 36.9907 105.308 37.022C105.548 37.0532 105.86 37.0688 106.245 37.0688V39.6001C105.891 39.6001 105.495 39.6001 105.058 39.6001C104.631 39.5897 104.193 39.5845 103.745 39.5845C103.308 39.5845 102.881 39.5845 102.464 39.5845C102.058 39.5741 101.699 39.5688 101.386 39.5688C101.011 39.5688 100.662 39.5741 100.339 39.5845C100.016 39.5845 99.709 39.5845 99.4173 39.5845C99.1256 39.5845 98.8392 39.5897 98.5579 39.6001C98.2767 39.6001 97.9902 39.6001 97.6985 39.6001V37.0688C98.136 37.0688 98.4798 37.0584 98.7298 37.0376C98.9902 37.0063 99.1881 36.9438 99.3235 36.8501C99.459 36.7459 99.5475 36.6001 99.5892 36.4126C99.6308 36.2251 99.6517 35.9647 99.6517 35.6313V28.7876C99.6517 28.5688 99.6152 28.4022 99.5423 28.2876C99.4694 28.173 99.3548 28.0897 99.1985 28.0376C99.0423 27.9751 98.8444 27.9386 98.6048 27.9282C98.3756 27.9178 98.0996 27.9126 97.7767 27.9126C97.7767 27.4855 97.7767 27.0688 97.7767 26.6626C97.7871 26.2563 97.7923 25.8397 97.7923 25.4126C98.2298 25.4126 98.6465 25.4178 99.0423 25.4282C99.4381 25.4282 99.8235 25.4282 100.199 25.4282C100.876 25.4282 101.563 25.423 102.261 25.4126C102.969 25.4022 103.688 25.3813 104.417 25.3501V35.6313ZM120.417 31.6626C120.417 31.0584 120.376 30.5324 120.292 30.0845C120.219 29.6366 120.094 29.2668 119.917 28.9751C119.74 28.673 119.495 28.4491 119.183 28.3032C118.881 28.147 118.506 28.0688 118.058 28.0688C117.412 28.0688 116.85 28.1834 116.37 28.4126C115.891 28.6313 115.449 29.0063 115.042 29.5376C114.928 29.7147 114.834 30.0272 114.761 30.4751C114.688 30.923 114.652 31.4907 114.652 32.1782V35.7876C114.652 36.1001 114.688 36.3449 114.761 36.522C114.834 36.6886 114.954 36.8136 115.12 36.897C115.287 36.9699 115.506 37.0168 115.777 37.0376C116.048 37.0584 116.381 37.0688 116.777 37.0688V39.6001C116.391 39.6001 116.021 39.6001 115.667 39.6001C115.313 39.6001 114.949 39.6001 114.574 39.6001C114.199 39.5897 113.803 39.5845 113.386 39.5845C112.969 39.5741 112.511 39.5688 112.011 39.5688C111.584 39.5688 111.188 39.5741 110.824 39.5845C110.469 39.5845 110.126 39.5845 109.792 39.5845C109.469 39.5845 109.146 39.5897 108.824 39.6001C108.511 39.6001 108.193 39.6001 107.87 39.6001V37.0688C108.318 37.0688 108.673 37.0532 108.933 37.022C109.204 36.9907 109.407 36.9334 109.542 36.8501C109.688 36.7563 109.782 36.6313 109.824 36.4751C109.865 36.3084 109.886 36.0949 109.886 35.8345V28.8032C109.886 28.397 109.725 28.147 109.402 28.0532C109.079 27.9595 108.594 27.9126 107.949 27.9126V25.4126C108.251 25.4126 108.537 25.4178 108.808 25.4282C109.089 25.4386 109.376 25.4438 109.667 25.4438C110.48 25.4438 111.277 25.4386 112.058 25.4282C112.839 25.4074 113.652 25.3866 114.495 25.3657V27.8345C114.766 27.4595 115.094 27.1105 115.48 26.7876C115.865 26.4543 116.303 26.1626 116.792 25.9126C117.292 25.6626 117.834 25.4647 118.417 25.3188C119.011 25.173 119.646 25.1001 120.324 25.1001C121.428 25.1001 122.365 25.3345 123.136 25.8032C123.907 26.272 124.49 26.9803 124.886 27.9282C125.688 27.0324 126.584 26.3397 127.574 25.8501C128.563 25.3501 129.626 25.1001 130.761 25.1001C131.709 25.1001 132.495 25.2511 133.12 25.5532C133.756 25.8449 134.266 26.2772 134.652 26.8501C135.037 27.4126 135.308 28.1157 135.464 28.9595C135.631 29.7928 135.714 30.7563 135.714 31.8501V36.1313C135.714 36.3605 135.745 36.5376 135.808 36.6626C135.881 36.7876 135.99 36.8813 136.136 36.9438C136.292 36.9959 136.49 37.0324 136.73 37.0532C136.98 37.0636 137.282 37.0688 137.636 37.0688V39.6001C136.969 39.6001 136.308 39.5949 135.652 39.5845C134.995 39.5741 134.256 39.5688 133.433 39.5688C132.62 39.5688 131.865 39.5741 131.167 39.5845C130.48 39.5949 129.777 39.6001 129.058 39.6001V37.0688C129.423 37.0688 129.725 37.048 129.964 37.0063C130.214 36.9543 130.407 36.8761 130.542 36.772C130.688 36.6678 130.787 36.522 130.839 36.3345C130.902 36.147 130.933 35.9126 130.933 35.6313V31.3188C130.933 30.2563 130.761 29.4491 130.417 28.897C130.074 28.3449 129.449 28.0688 128.542 28.0688C127.824 28.0688 127.219 28.2147 126.73 28.5063C126.251 28.7876 125.844 29.1522 125.511 29.6001C125.396 29.923 125.313 30.2772 125.261 30.6626C125.219 31.048 125.199 31.4699 125.199 31.9282V36.0688C125.199 36.2876 125.23 36.4647 125.292 36.6001C125.355 36.7251 125.454 36.8241 125.589 36.897C125.735 36.9699 125.928 37.0168 126.167 37.0376C126.407 37.0584 126.704 37.0688 127.058 37.0688V39.6001C126.714 39.6001 126.376 39.6001 126.042 39.6001C125.719 39.6001 125.386 39.6001 125.042 39.6001C124.699 39.5897 124.334 39.5845 123.949 39.5845C123.563 39.5741 123.136 39.5688 122.667 39.5688C122.261 39.5688 121.881 39.5741 121.527 39.5845C121.173 39.5845 120.834 39.5845 120.511 39.5845C120.199 39.5845 119.886 39.5897 119.574 39.6001C119.271 39.6001 118.964 39.6001 118.652 39.6001V37.0688C119.339 37.0584 119.803 36.9438 120.042 36.7251C120.292 36.5063 120.417 36.1782 120.417 35.7407V31.6626ZM150.964 39.9595C149.766 39.9595 148.751 39.7616 147.917 39.3657C147.084 38.9699 146.37 38.3813 145.777 37.6001L145.761 39.647C145.115 39.6261 144.485 39.6105 143.87 39.6001C143.266 39.6001 142.657 39.5949 142.042 39.5845C141.865 39.5845 141.615 39.5897 141.292 39.6001C140.969 39.6001 140.652 39.6001 140.339 39.6001H139.167V37.1157H140.027C140.308 37.1053 140.521 37.0428 140.667 36.9282C140.824 36.8136 140.938 36.6834 141.011 36.5376C141.084 36.3813 141.126 36.2303 141.136 36.0845C141.157 35.9386 141.167 35.8345 141.167 35.772V22.8813C141.167 22.6105 141.126 22.397 141.042 22.2407C140.959 22.0741 140.834 21.9491 140.667 21.8657C140.501 21.7824 140.287 21.7303 140.027 21.7095C139.766 21.6782 139.464 21.6626 139.12 21.6626V19.1626C139.704 19.173 140.303 19.173 140.917 19.1626C141.542 19.1418 142.152 19.1313 142.745 19.1313C143.308 19.1209 143.85 19.1157 144.37 19.1157C144.902 19.1053 145.428 19.0897 145.949 19.0688V26.9751C146.542 26.3501 147.251 25.8709 148.074 25.5376C148.896 25.2043 149.808 25.0376 150.808 25.0376C151.881 25.0376 152.86 25.2095 153.745 25.5532C154.641 25.8866 155.407 26.3761 156.042 27.022C156.688 27.6678 157.188 28.4543 157.542 29.3813C157.896 30.3084 158.074 31.3553 158.074 32.522C158.074 33.5845 157.907 34.5688 157.574 35.4751C157.251 36.3813 156.777 37.1678 156.152 37.8345C155.537 38.4907 154.792 39.0116 153.917 39.397C153.042 39.772 152.058 39.9595 150.964 39.9595ZM149.511 27.6782C148.917 27.6782 148.386 27.7928 147.917 28.022C147.459 28.2407 147.068 28.5584 146.745 28.9751C146.433 29.3918 146.193 29.9022 146.027 30.5063C145.87 31.1001 145.792 31.7668 145.792 32.5063C145.792 33.9855 146.115 35.1418 146.761 35.9751C147.407 36.798 148.334 37.2095 149.542 37.2095C150.709 37.2095 151.61 36.8032 152.245 35.9907C152.891 35.1678 153.214 33.9907 153.214 32.4595C153.214 31.7095 153.126 31.0376 152.949 30.4438C152.782 29.8501 152.537 29.3501 152.214 28.9438C151.902 28.5376 151.516 28.2251 151.058 28.0063C150.6 27.7876 150.084 27.6782 149.511 27.6782ZM169.261 24.9751C170.417 24.9751 171.516 25.1366 172.558 25.4595C173.6 25.7824 174.511 26.2616 175.292 26.897C176.074 27.5324 176.693 28.3241 177.152 29.272C177.61 30.2095 177.839 31.2928 177.839 32.522C177.839 33.7199 177.615 34.7876 177.167 35.7251C176.719 36.6626 176.11 37.4334 175.339 38.0376C174.568 38.6418 173.662 39.1157 172.62 39.4595C171.579 39.7928 170.459 39.9595 169.261 39.9595C168.053 39.9595 166.928 39.7928 165.886 39.4595C164.844 39.1261 163.933 38.6574 163.152 38.0532C162.381 37.4491 161.771 36.6782 161.324 35.7407C160.886 34.8032 160.667 33.7303 160.667 32.522C160.667 31.3345 160.886 30.272 161.324 29.3345C161.761 28.397 162.365 27.6053 163.136 26.9595C163.907 26.3136 164.813 25.8241 165.855 25.4907C166.907 25.147 168.042 24.9751 169.261 24.9751ZM169.277 27.5532C168.089 27.5532 167.173 27.9907 166.527 28.8657C165.881 29.7407 165.558 30.9543 165.558 32.5063C165.558 34.0688 165.876 35.2876 166.511 36.1626C167.146 37.0272 168.053 37.4595 169.23 37.4595C169.813 37.4595 170.334 37.3449 170.792 37.1157C171.251 36.8866 171.641 36.5584 171.964 36.1313C172.287 35.7043 172.532 35.1782 172.699 34.5532C172.865 33.9282 172.949 33.2251 172.949 32.4438C172.949 31.6834 172.865 31.0011 172.699 30.397C172.532 29.7928 172.292 29.2824 171.98 28.8657C171.667 28.4386 171.282 28.1157 170.824 27.897C170.365 27.6678 169.85 27.5532 169.277 27.5532ZM188.886 24.9751C190.042 24.9751 191.141 25.1366 192.183 25.4595C193.225 25.7824 194.136 26.2616 194.917 26.897C195.699 27.5324 196.318 28.3241 196.777 29.272C197.235 30.2095 197.464 31.2928 197.464 32.522C197.464 33.7199 197.24 34.7876 196.792 35.7251C196.344 36.6626 195.735 37.4334 194.964 38.0376C194.193 38.6418 193.287 39.1157 192.245 39.4595C191.204 39.7928 190.084 39.9595 188.886 39.9595C187.678 39.9595 186.553 39.7928 185.511 39.4595C184.469 39.1261 183.558 38.6574 182.777 38.0532C182.006 37.4491 181.396 36.6782 180.949 35.7407C180.511 34.8032 180.292 33.7303 180.292 32.522C180.292 31.3345 180.511 30.272 180.949 29.3345C181.386 28.397 181.99 27.6053 182.761 26.9595C183.532 26.3136 184.438 25.8241 185.48 25.4907C186.532 25.147 187.667 24.9751 188.886 24.9751ZM188.902 27.5532C187.714 27.5532 186.798 27.9907 186.152 28.8657C185.506 29.7407 185.183 30.9543 185.183 32.5063C185.183 34.0688 185.501 35.2876 186.136 36.1626C186.771 37.0272 187.678 37.4595 188.855 37.4595C189.438 37.4595 189.959 37.3449 190.417 37.1157C190.876 36.8866 191.266 36.5584 191.589 36.1313C191.912 35.7043 192.157 35.1782 192.324 34.5532C192.49 33.9282 192.574 33.2251 192.574 32.4438C192.574 31.6834 192.49 31.0011 192.324 30.397C192.157 29.7928 191.917 29.2824 191.605 28.8657C191.292 28.4386 190.907 28.1157 190.449 27.897C189.99 27.6678 189.475 27.5532 188.902 27.5532ZM212.761 29.7095H210.292C210.126 28.9491 209.73 28.3449 209.105 27.897C208.49 27.4491 207.673 27.2095 206.652 27.1782C206.235 27.1782 205.876 27.2199 205.574 27.3032C205.282 27.3866 205.042 27.5011 204.855 27.647C204.667 27.7824 204.527 27.9438 204.433 28.1313C204.35 28.3084 204.308 28.4959 204.308 28.6938C204.308 28.9438 204.386 29.1626 204.542 29.3501C204.699 29.5272 204.923 29.6938 205.214 29.8501C205.506 30.0063 205.86 30.1574 206.277 30.3032C206.704 30.4386 207.188 30.5845 207.73 30.7407C208.646 30.9907 209.454 31.2563 210.152 31.5376C210.86 31.8084 211.454 32.1261 211.933 32.4907C212.423 32.8553 212.792 33.2824 213.042 33.772C213.292 34.2511 213.417 34.8345 213.417 35.522C213.417 36.3032 213.251 36.9751 212.917 37.5376C212.584 38.0897 212.141 38.548 211.589 38.9126C211.048 39.2772 210.428 39.5428 209.73 39.7095C209.032 39.8761 208.313 39.9595 207.574 39.9595C206.511 39.9595 205.62 39.8293 204.902 39.5688C204.193 39.298 203.61 38.8918 203.152 38.3501L203.089 39.5845C202.6 39.5845 202.12 39.5688 201.652 39.5376C201.193 39.5063 200.725 39.4907 200.245 39.4907V35.0532H203.074C203.115 35.522 203.24 35.9334 203.449 36.2876C203.667 36.6418 203.943 36.9386 204.277 37.1782C204.61 37.4074 204.99 37.5793 205.417 37.6938C205.844 37.8084 206.298 37.8657 206.777 37.8657C207.506 37.8657 208.105 37.7303 208.574 37.4595C209.042 37.1886 209.277 36.8188 209.277 36.3501C209.277 36.0376 209.146 35.772 208.886 35.5532C208.636 35.3241 208.298 35.1157 207.87 34.9282C207.454 34.7407 206.969 34.5584 206.417 34.3813C205.876 34.2043 205.313 34.0116 204.73 33.8032C204.032 33.5532 203.402 33.298 202.839 33.0376C202.287 32.7772 201.813 32.4803 201.417 32.147C201.032 31.8136 200.735 31.423 200.527 30.9751C200.318 30.5272 200.214 29.9907 200.214 29.3657C200.214 28.7199 200.334 28.1366 200.574 27.6157C200.824 27.0845 201.183 26.6366 201.652 26.272C202.12 25.897 202.699 25.6105 203.386 25.4126C204.074 25.2043 204.855 25.1001 205.73 25.1001C206.646 25.1001 207.501 25.2199 208.292 25.4595C209.084 25.6886 209.709 26.0376 210.167 26.5063C210.178 26.4438 210.193 26.3501 210.214 26.2251C210.245 26.0897 210.277 25.9543 210.308 25.8188C210.35 25.6626 210.386 25.4907 210.417 25.3032C210.73 25.3345 211.032 25.3657 211.324 25.397C211.574 25.4178 211.829 25.4386 212.089 25.4595C212.36 25.4803 212.584 25.5011 212.761 25.522V29.7095ZM222.074 21.1157V25.4126H225.902V27.9126H222.089V34.2563C222.089 34.7147 222.1 35.1157 222.12 35.4595C222.152 35.7928 222.214 36.0741 222.308 36.3032C222.402 36.522 222.537 36.6886 222.714 36.8032C222.891 36.9178 223.126 36.9751 223.417 36.9751C224.115 36.9751 224.464 36.4907 224.464 35.522L226.199 35.3032V35.8032C226.178 36.5741 226.068 37.2147 225.87 37.7251C225.683 38.2355 225.407 38.6626 225.042 39.0063C224.678 39.3397 224.235 39.5793 223.714 39.7251C223.193 39.8813 222.6 39.9595 221.933 39.9595C220.318 39.9595 219.141 39.5324 218.402 38.6782C217.673 37.8136 217.308 36.6209 217.308 35.1001V27.9126H214.933V25.5845C215.048 25.5845 215.251 25.5741 215.542 25.5532C215.844 25.522 216.152 25.4959 216.464 25.4751C216.818 25.4438 217.209 25.4126 217.636 25.3813C217.636 25.3501 217.646 25.2511 217.667 25.0845C217.699 24.9074 217.735 24.6991 217.777 24.4595C217.818 24.2199 217.86 23.9595 217.902 23.6782C217.954 23.397 217.995 23.1313 218.027 22.8813C218.068 22.6313 218.1 22.4126 218.12 22.2251C218.152 22.0376 218.167 21.9126 218.167 21.8501L222.074 21.1157Z" fill="#3A5372"/>
<path d="M36.4141 26.4587C36.3928 26.544 36.3714 26.6294 36.3501 26.7147C36.3501 26.7787 36.3394 26.8534 36.3181 26.9387C36.2754 27.2587 36.2114 27.568 36.1261 27.8667C36.0621 28.1654 35.8914 28.432 35.6141 28.6667C35.4008 28.8587 35.2408 29.0934 35.1341 29.3707C35.0274 29.648 34.9101 29.9147 34.7821 30.1707C34.5688 30.5547 34.2914 30.8214 33.9501 30.9707C33.6088 31.0987 33.2248 31.088 32.7981 30.9387C32.5848 30.8534 32.3714 30.832 32.1581 30.8747C31.9448 30.896 31.7208 30.9494 31.4861 31.0347C30.9741 31.248 30.6328 31.3227 30.4621 31.2587C30.3128 31.1734 30.1528 30.864 29.9821 30.3307C29.5981 29.1574 29.1821 28.0054 28.7341 26.8747C28.2861 25.7227 27.9661 24.5387 27.7741 23.3227C27.6674 22.5547 27.5714 21.7974 27.4861 21.0507C27.4008 20.2827 27.3474 19.5147 27.3261 18.7467C27.3048 18.1707 27.3261 17.6054 27.3901 17.0507C27.4541 16.4747 27.4968 15.9094 27.5181 15.3547C27.5394 14.8427 27.7634 14.5334 28.1901 14.4267C28.4248 14.384 28.6488 14.32 28.8621 14.2347C29.0968 14.1494 29.3208 14.0747 29.5341 14.0107H33.8861C34.5048 14.3734 34.9528 14.8534 35.2301 15.4507C35.5074 16.0267 35.7101 16.6454 35.8381 17.3067C35.9874 17.9894 36.0941 18.6827 36.1581 19.3867C36.2434 20.0907 36.3288 20.7947 36.4141 21.4987V26.4587ZM35.9021 24.1227C35.9874 23.2267 35.9768 22.3414 35.8701 21.4667C35.7848 20.592 35.6888 19.7174 35.5821 18.8427C35.5181 18.224 35.4008 17.6054 35.2301 16.9867C35.0594 16.368 34.7928 15.7814 34.4301 15.2267C33.9181 14.4374 33.2568 14.2454 32.4461 14.6507C32.2754 14.736 32.1474 14.832 32.0621 14.9387C31.9981 15.0454 31.9981 15.216 32.0621 15.4507C32.2328 16.112 32.3821 16.7734 32.5101 17.4347C32.6594 18.0747 32.7768 18.736 32.8621 19.4187C32.9688 20.4214 33.0434 21.4347 33.0861 22.4587C33.1288 23.4614 33.1181 24.4747 33.0541 25.4987C33.0328 26.2027 32.9581 26.896 32.8301 27.5787C32.7234 28.2614 32.5848 28.944 32.4141 29.6267C32.3288 29.904 32.3288 30.1174 32.4141 30.2667C32.4994 30.3947 32.6808 30.512 32.9581 30.6187C33.2994 30.7254 33.5768 30.7254 33.7901 30.6187C34.0248 30.4907 34.2168 30.288 34.3661 30.0107C34.4941 29.7547 34.6114 29.4987 34.7181 29.2427C34.8248 28.9867 34.9634 28.7627 35.1341 28.5707C35.4968 28.1014 35.7208 27.568 35.8061 26.9707C35.9128 26.48 35.9448 26 35.9021 25.5307C35.8808 25.0614 35.8808 24.592 35.9021 24.1227ZM28.3501 15.0347C28.2434 15.056 28.1901 15.1307 28.1901 15.2587C28.2114 15.3654 28.1794 15.408 28.0941 15.3867C28.0728 15.472 28.0408 15.5574 27.9981 15.6427C27.9768 15.7067 27.9661 15.7814 27.9661 15.8667C27.9234 16.208 27.8808 16.5494 27.8381 16.8907C27.7954 17.2107 27.7848 17.5414 27.8061 17.8827C27.8061 19.2694 27.9021 20.656 28.0941 22.0427C28.2861 23.408 28.5954 24.7627 29.0221 26.1067C29.2354 26.7894 29.4701 27.4827 29.7261 28.1867C29.9821 28.8694 30.2274 29.552 30.4621 30.2347C30.5688 30.576 30.7074 30.736 30.8781 30.7147C31.0701 30.6934 31.2728 30.6187 31.4861 30.4907C31.6141 30.4054 31.6994 30.3094 31.7421 30.2027C31.7848 30.0747 31.8274 29.9574 31.8701 29.8507C32.1474 29.0614 32.3288 28.2614 32.4141 27.4507C32.4994 26.64 32.5634 25.8294 32.6061 25.0187C32.7128 23.504 32.6701 22 32.4781 20.5067C32.3074 18.992 32.0514 17.488 31.7101 15.9947C31.6248 15.568 31.4008 15.216 31.0381 14.9387C30.6968 14.64 30.3448 14.5014 29.9821 14.5227C29.6834 14.5227 29.4488 14.512 29.2781 14.4907C29.1288 14.4694 28.9901 14.4907 28.8621 14.5547C28.7341 14.5974 28.5634 14.7574 28.3501 15.0347ZM36.4141 38.2987C36.3501 38.6827 36.2541 39.056 36.1261 39.4187C35.9981 39.76 35.8701 40.1014 35.7421 40.4427C35.4221 41.2534 34.8994 41.744 34.1741 41.9147C33.4701 42.0854 32.7874 41.8934 32.1261 41.3387C31.4861 40.784 31.0061 40.144 30.6861 39.4187C30.3661 38.6934 30.0568 37.968 29.7581 37.2427C29.4168 36.432 29.3848 35.7174 29.6621 35.0987C29.9608 34.4587 30.3128 33.84 30.7181 33.2427C30.8888 32.9867 31.1554 32.816 31.5181 32.7307C31.8808 32.6454 32.2221 32.656 32.5421 32.7627C33.4594 33.0187 34.2168 33.424 34.8141 33.9787C35.4328 34.512 35.8701 35.248 36.1261 36.1867C36.1688 36.2934 36.2114 36.4 36.2541 36.5067C36.3181 36.592 36.3714 36.688 36.4141 36.7947V38.2987ZM32.0621 35.8347C32.2968 35.8347 32.5208 35.7387 32.7341 35.5467C32.9688 35.3334 33.0861 35.1307 33.0861 34.9387C33.0861 34.768 32.9901 34.5654 32.7981 34.3307C32.6274 34.0747 32.4248 33.8507 32.1901 33.6587C31.9554 33.4667 31.7634 33.3707 31.6141 33.3707C31.4221 33.3494 31.2301 33.4774 31.0381 33.7547C30.8674 34.032 30.7821 34.32 30.7821 34.6187C30.7821 34.9174 30.9101 35.1947 31.1661 35.4507C31.4434 35.7067 31.7421 35.8347 32.0621 35.8347ZM30.2701 35.1307C30.1208 35.2587 30.0461 35.408 30.0461 35.5787C30.0461 36.6027 30.2274 37.552 30.5901 38.4267C30.9528 39.3014 31.4648 40.112 32.1261 40.8587C32.5741 41.3494 33.0754 41.584 33.6301 41.5627C34.2061 41.5627 34.6541 41.328 34.9741 40.8587C35.3154 40.368 35.5821 39.8454 35.7741 39.2907C35.9661 38.7147 36.0088 38.1174 35.9021 37.4987C35.8168 36.944 35.6674 36.4214 35.4541 35.9307C35.2408 35.4187 34.9528 34.9494 34.5901 34.5227C34.1848 34.096 33.7581 33.8934 33.3101 33.9147C33.6088 34.512 33.7154 34.9707 33.6301 35.2907C33.5448 35.5894 33.2568 35.888 32.7661 36.1867C31.9341 36.6774 31.1021 36.3254 30.2701 35.1307Z" fill="white"/>
<path d="M33.3423 28.392C33.321 28.4774 33.2996 28.5627 33.2783 28.648C33.2783 28.712 33.2676 28.7867 33.2463 28.872C33.2036 29.192 33.1396 29.5014 33.0543 29.8C32.9903 30.0987 32.8196 30.3654 32.5423 30.6C32.329 30.792 32.169 31.0267 32.0623 31.304C31.9556 31.5814 31.8383 31.848 31.7103 32.104C31.497 32.488 31.2196 32.7547 30.8783 32.904C30.537 33.032 30.153 33.0214 29.7263 32.872C29.513 32.7867 29.2996 32.7654 29.0863 32.808C28.873 32.8294 28.649 32.8827 28.4143 32.968C27.9023 33.1814 27.561 33.256 27.3903 33.192C27.241 33.1067 27.081 32.7974 26.9103 32.264C26.5263 31.0907 26.1103 29.9387 25.6623 28.808C25.2143 27.656 24.8943 26.472 24.7023 25.256C24.5956 24.488 24.4996 23.7307 24.4143 22.984C24.329 22.216 24.2756 21.448 24.2543 20.68C24.233 20.104 24.2543 19.5387 24.3183 18.984C24.3823 18.408 24.425 17.8427 24.4463 17.288C24.4676 16.776 24.6916 16.4667 25.1183 16.36C25.353 16.3174 25.577 16.2534 25.7903 16.168C26.025 16.0827 26.249 16.008 26.4623 15.944H30.8143C31.433 16.3067 31.881 16.7867 32.1583 17.384C32.4356 17.96 32.6383 18.5787 32.7663 19.24C32.9156 19.9227 33.0223 20.616 33.0863 21.32C33.1716 22.024 33.257 22.728 33.3423 23.432V28.392ZM32.8303 26.056C32.9156 25.16 32.905 24.2747 32.7983 23.4C32.713 22.5254 32.617 21.6507 32.5103 20.776C32.4463 20.1574 32.329 19.5387 32.1583 18.92C31.9876 18.3014 31.721 17.7147 31.3583 17.16C30.8463 16.3707 30.185 16.1787 29.3743 16.584C29.2036 16.6694 29.0756 16.7654 28.9903 16.872C28.9263 16.9787 28.9263 17.1494 28.9903 17.384C29.161 18.0454 29.3103 18.7067 29.4383 19.368C29.5876 20.008 29.705 20.6694 29.7903 21.352C29.897 22.3547 29.9716 23.368 30.0143 24.392C30.057 25.3947 30.0463 26.408 29.9823 27.432C29.961 28.136 29.8863 28.8294 29.7583 29.512C29.6516 30.1947 29.513 30.8774 29.3423 31.56C29.257 31.8374 29.257 32.0507 29.3423 32.2C29.4276 32.328 29.609 32.4454 29.8863 32.552C30.2276 32.6587 30.505 32.6587 30.7183 32.552C30.953 32.424 31.145 32.2214 31.2943 31.944C31.4223 31.688 31.5396 31.432 31.6463 31.176C31.753 30.92 31.8916 30.696 32.0623 30.504C32.425 30.0347 32.649 29.5014 32.7343 28.904C32.841 28.4134 32.873 27.9334 32.8303 27.464C32.809 26.9947 32.809 26.5254 32.8303 26.056ZM25.2783 16.968C25.1716 16.9894 25.1183 17.064 25.1183 17.192C25.1396 17.2987 25.1076 17.3414 25.0223 17.32C25.001 17.4054 24.969 17.4907 24.9263 17.576C24.905 17.64 24.8943 17.7147 24.8943 17.8C24.8516 18.1414 24.809 18.4827 24.7663 18.824C24.7236 19.144 24.713 19.4747 24.7343 19.816C24.7343 21.2027 24.8303 22.5894 25.0223 23.976C25.2143 25.3414 25.5236 26.696 25.9503 28.04C26.1636 28.7227 26.3983 29.416 26.6543 30.12C26.9103 30.8027 27.1556 31.4854 27.3903 32.168C27.497 32.5094 27.6356 32.6694 27.8063 32.648C27.9983 32.6267 28.201 32.552 28.4143 32.424C28.5423 32.3387 28.6276 32.2427 28.6703 32.136C28.713 32.008 28.7556 31.8907 28.7983 31.784C29.0756 30.9947 29.257 30.1947 29.3423 29.384C29.4276 28.5734 29.4916 27.7627 29.5343 26.952C29.641 25.4374 29.5983 23.9334 29.4063 22.44C29.2356 20.9254 28.9796 19.4214 28.6383 17.928C28.553 17.5014 28.329 17.1494 27.9663 16.872C27.625 16.5734 27.273 16.4347 26.9103 16.456C26.6116 16.456 26.377 16.4454 26.2063 16.424C26.057 16.4027 25.9183 16.424 25.7903 16.488C25.6623 16.5307 25.4916 16.6907 25.2783 16.968ZM33.3423 40.232C33.2783 40.616 33.1823 40.9894 33.0543 41.352C32.9263 41.6934 32.7983 42.0347 32.6703 42.376C32.3503 43.1867 31.8276 43.6774 31.1023 43.848C30.3983 44.0187 29.7156 43.8267 29.0543 43.272C28.4143 42.7174 27.9343 42.0774 27.6143 41.352C27.2943 40.6267 26.985 39.9014 26.6863 39.176C26.345 38.3654 26.313 37.6507 26.5903 37.032C26.889 36.392 27.241 35.7734 27.6463 35.176C27.817 34.92 28.0836 34.7494 28.4463 34.664C28.809 34.5787 29.1503 34.5894 29.4703 34.696C30.3876 34.952 31.145 35.3574 31.7423 35.912C32.361 36.4454 32.7983 37.1814 33.0543 38.12C33.097 38.2267 33.1396 38.3334 33.1823 38.44C33.2463 38.5254 33.2996 38.6214 33.3423 38.728V40.232ZM28.9903 37.768C29.225 37.768 29.449 37.672 29.6623 37.48C29.897 37.2667 30.0143 37.064 30.0143 36.872C30.0143 36.7014 29.9183 36.4987 29.7263 36.264C29.5556 36.008 29.353 35.784 29.1183 35.592C28.8836 35.4 28.6916 35.304 28.5423 35.304C28.3503 35.2827 28.1583 35.4107 27.9663 35.688C27.7956 35.9654 27.7103 36.2534 27.7103 36.552C27.7103 36.8507 27.8383 37.128 28.0943 37.384C28.3716 37.64 28.6703 37.768 28.9903 37.768ZM27.1983 37.064C27.049 37.192 26.9743 37.3414 26.9743 37.512C26.9743 38.536 27.1556 39.4854 27.5183 40.36C27.881 41.2347 28.393 42.0454 29.0543 42.792C29.5023 43.2827 30.0036 43.5174 30.5583 43.496C31.1343 43.496 31.5823 43.2614 31.9023 42.792C32.2436 42.3014 32.5103 41.7787 32.7023 41.224C32.8943 40.648 32.937 40.0507 32.8303 39.432C32.745 38.8774 32.5956 38.3547 32.3823 37.864C32.169 37.352 31.881 36.8827 31.5183 36.456C31.113 36.0294 30.6863 35.8267 30.2383 35.848C30.537 36.4454 30.6436 36.904 30.5583 37.224C30.473 37.5227 30.185 37.8214 29.6943 38.12C28.8623 38.6107 28.0303 38.2587 27.1983 37.064Z" fill="#3A5372"/>
</svg>
